<svg width="23" height="22" viewBox="0 0 23 22" fill="none" xmlns="http://www.w3.org/2000/svg">
<path d="M9.62494 21.9602C8.25187 21.7672 6.97901 21.3525 5.80637 20.7161C4.63373 20.0797 3.61701 19.2731 2.75623 18.2964C1.89544 17.3197 1.22088 16.2072 0.732526 14.9591C0.244175 13.7109 0 12.3846 0 10.9801C0 9.25551 0.358601 7.65771 1.0758 6.18666C1.793 4.71562 2.8202 3.44163 4.15739 2.36471H1.02082V0.61475H7.2916V6.88553H5.54165V3.50443C4.32262 4.40486 3.38591 5.50272 2.73153 6.79802C2.07715 8.09333 1.74996 9.48735 1.74996 10.9801C1.74996 13.2895 2.48959 15.3068 3.96886 17.0322C5.44813 18.7575 7.33348 19.8071 9.62494 20.181V21.9602ZM9.42079 15.9429L4.8955 11.3996L6.12496 10.1702L9.42079 13.466L16.0416 6.84518L17.2711 8.09258L9.42079 15.9429ZM14.875 21.3566V15.0859H16.6249V18.467C17.8365 17.5471 18.7713 16.4425 19.4294 15.1532C20.0876 13.8638 20.4166 12.4728 20.4166 10.9801C20.4166 8.67069 19.677 6.65333 18.1977 4.92801C16.7185 3.20269 14.8331 2.15306 12.5416 1.77912V0C15.2953 0.373938 17.5878 1.59034 19.4193 3.64919C21.2508 5.70805 22.1666 8.15168 22.1666 10.9801C22.1666 12.7047 21.808 14.3043 21.0908 15.7791C20.3736 17.2539 19.3464 18.5298 18.0092 19.6067H21.1458V21.3566H14.875Z" fill="#064E3B"/>
</svg>
