<svg width="26" height="13" viewBox="0 0 26 13" fill="none" xmlns="http://www.w3.org/2000/svg">
<path d="M6.41662 8.30121C5.89462 8.30121 5.45003 8.11761 5.08283 7.75041C4.71564 7.38322 4.53204 6.93862 4.53204 6.41662C4.53204 5.89462 4.71564 5.45003 5.08283 5.08283C5.45003 4.71564 5.89462 4.53204 6.41662 4.53204C6.93862 4.53204 7.38322 4.71564 7.75041 5.08283C8.11761 5.45003 8.30121 5.89462 8.30121 6.41662C8.30121 6.93862 8.11761 7.38322 7.75041 7.75041C7.38322 8.11761 6.93862 8.30121 6.41662 8.30121ZM6.41662 12.8332C4.63672 12.8332 3.12231 12.2088 1.87339 10.9599C0.624462 9.71094 0 8.19653 0 6.41662C0 4.63672 0.624462 3.12231 1.87339 1.87339C3.12231 0.624462 4.63672 0 6.41662 0C7.66705 0 8.79781 0.322703 9.80892 0.968109C10.82 1.61352 11.5918 2.45748 12.1243 3.5H22.6266L25.5432 6.41662L21.0561 10.8813L18.891 9.25472L16.6699 10.9037L14.3926 9.33325H12.1243C11.5918 10.3683 10.82 11.2104 9.80892 11.8595C8.79781 12.5087 7.66705 12.8332 6.41662 12.8332ZM6.41662 11.0833C7.53543 11.0833 8.50429 10.7453 9.3232 10.0692C10.1421 9.39312 10.6765 8.56448 10.9262 7.58329H14.9423L16.6227 8.74547L18.9022 7.07849L20.8833 8.59291L23.0596 6.41662L21.8929 5.24996H10.9262C10.6765 4.26876 10.1421 3.44013 9.3232 2.76406C8.50429 2.08799 7.53543 1.74996 6.41662 1.74996C5.13329 1.74996 4.03468 2.2069 3.12079 3.12079C2.2069 4.03468 1.74996 5.13329 1.74996 6.41662C1.74996 7.69996 2.2069 8.79857 3.12079 9.71246C4.03468 10.6263 5.13329 11.0833 6.41662 11.0833Z" fill="#064E3B"/>
</svg>
