<svg width="23" height="18" viewBox="0 0 23 18" fill="none" xmlns="http://www.w3.org/2000/svg">
<path d="M2.10896 17.4999C1.51965 17.4999 1.02082 17.2957 0.612495 16.8874C0.204165 16.4791 0 15.9803 0 15.391V2.10896C0 1.51965 0.204165 1.02082 0.612495 0.612495C1.02082 0.204165 1.51965 0 2.10896 0H20.0576C20.6469 0 21.1458 0.204165 21.5541 0.612495C21.9624 1.02082 22.1666 1.51965 22.1666 2.10896V15.391C22.1666 15.9803 21.9624 16.4791 21.5541 16.8874C21.1458 17.2957 20.6469 17.4999 20.0576 17.4999H2.10896ZM11.0833 9.40056L1.74996 3.4326V15.391C1.74996 15.4957 1.78361 15.5817 1.85093 15.649C1.91824 15.7163 2.00425 15.75 2.10896 15.75H20.0576C20.1623 15.75 20.2483 15.7163 20.3157 15.649C20.383 15.5817 20.4166 15.4957 20.4166 15.391V3.4326L11.0833 9.40056ZM11.0833 7.58329L20.2371 1.74996H1.92946L11.0833 7.58329ZM1.74996 3.4326V1.74996V3.4326V15.391C1.74996 15.4957 1.78361 15.5817 1.85093 15.649C1.91824 15.7163 2.00425 15.75 2.10896 15.75H1.74996C1.74996 15.75 1.74996 15.7163 1.74996 15.649C1.74996 15.5817 1.74996 15.4957 1.74996 15.391V3.4326Z" fill="#064E3B"/>
</svg>
